<?xml version="1.0" encoding="utf-8"?>
<!-- Generator: Adobe Illustrator 13.0.0, SVG Export Plug-In . SVG Version: 6.00 Build 14948)  -->
<!DOCTYPE svg PUBLIC "-//W3C//DTD SVG 1.1 Basic//EN" "http://www.w3.org/Graphics/SVG/1.1/DTD/svg11-basic.dtd">
<svg version="1.1" baseProfile="basic" id="Layer_1"
	 xmlns="http://www.w3.org/2000/svg" xmlns:xlink="http://www.w3.org/1999/xlink" x="0px" y="0px" width="180.648px"
	 height="129.469px" viewBox="0 0 180.648 129.469" xml:space="preserve">
<path fill="#669776" d="M167.819,129.469H49.498c-0.348-0.078-0.692-0.22-1.041-0.22c-3.752-0.046-7.499-0.09-11.256-0.09
	c-4.016,0-8.037,0.044-12.054,0.09c-0.317,0-0.627,0.142-0.941,0.22H8.127c-0.521-0.501-1.012-1.055-1.567-1.504
	c-0.88-0.703-1.802-1.326-1.821-2.764c-0.002-0.521-0.021-1.083-0.189-1.551c-0.414-1.166-0.826-2.311-1.146-3.533
	c-0.407-1.544-0.053-3.012-0.208-4.501c-0.101-0.974,0.556-2.017,0.577-3.039c0.021-1.087-0.225-2.208-0.503-3.267
	c-0.146-0.562-0.594-1.039-0.946-1.517c-0.289-0.392-0.636-0.731-0.961-1.096c-0.074,0.062-0.144,0.13-0.212,0.192
	c-0.118-1.082,0.115-2.354-1.149-2.812v-0.408c0.189-0.144,0.468-0.231,0.56-0.427c0.647-1.455,1.377-2.881,1.857-4.408
	c0.572-1.811,0.981-3.691,1.356-5.568c0.194-0.97,0.339-2.041,0.175-2.994c-0.155-0.867,0.069-1.278,0.605-1.69
	c0.242-0.183,0.584-0.301,0.713-0.562c0.43-0.854,0.895-1.717,1.143-2.646c0.774-2.884,1.566-5.771,2.141-8.707
	c0.59-3.02,1.09-6.062,1.172-9.179c0.05-1.899,0.236-3.798,0.362-5.697c0.062-0.927,0.107-1.855,0.2-2.78
	c0.057-0.531,0.183-1.057,0.29-1.581c0.11-0.528,0.102-1.192,0.391-1.524c0.208-0.242,0.814-0.049,1.23-0.049
	c-0.151-0.217-0.326-0.472-0.501-0.719c-0.289,0.158-0.511,0.281-0.796,0.442c-0.041-0.262-0.097-0.427-0.085-0.58
	c0.14-1.961,0.303-3.921,0.425-5.882c0.031-0.454-0.086-0.919-0.09-1.376c-0.004-0.59,0.053-1.183,0.064-1.774
	c0.016-0.758-0.064-1.532,0.045-2.269c0.103-0.691,0.366-1.362,0.621-2.009c0.085-0.213,0.37-0.322,0.564-0.479
	c-0.076,0-0.151,0-0.229,0c0-0.514-0.023-1.028,0.009-1.539c0.049-0.879,0.117-1.758,0.208-2.63
	c0.053-0.479,0.149-0.956,0.235-1.431c0.216-1.166,0.448-2.326,0.64-3.491c0.085-0.516,0.006-1.083,0.153-1.565
	c0.375-1.21,0.107-2.05-0.688-2.349c0.292-0.735,0.589-1.482,0.884-2.234c0.067,0.035,0.218,0.116,0.367,0.197
	c-0.448-1.148-1.35-2.148-0.397-3.497c0.476,0.414,0.939,0.821,1.522,1.33c0.293-1.118-0.474-1.694-0.542-2.679
	c-0.366,0.377-0.566,0.583-0.896,0.92c0.07-1.147,0.114-2.108,0.197-3.063c0.039-0.427,0.299-0.881,0.218-1.257
	c-0.214-0.98-0.56-1.926-0.908-3.06c0.465-1.223,0.647-2.766,0.056-4.18c-0.401-0.95-0.189-1.336,0.425-1.898
	c0.342-0.312,0.709-0.977,0.642-1.395c-0.228-1.419-0.593-2.823-1.012-4.191c-0.218-0.716-0.66-1.345-1-2.015
	c0.075-0.083,0.149-0.167,0.222-0.25c0.194,0.214,0.389,0.426,0.579,0.64c0.021-0.047,0.041-0.096,0.062-0.144
	c0.891,0.678,1.779,1.355,2.709,2.061c0.143-0.112,0.383-0.299,0.543-0.424c-0.193-0.182-0.401-0.382-0.729-0.698
	c0.883-0.28,1.603-0.507,2.355-0.744c0.146,0.734,0.534,1.247,1.287,1.171c0.501-0.051,0.995-0.167,1.486-0.29
	c0.181-0.043,0.36-0.163,0.501-0.297c0.384-0.366,0.742-0.758,1.108-1.138c0.049,0.062,0.098,0.125,0.143,0.187
	c0.02-0.232,0.037-0.467,0.054-0.701c0.167,0.067,0.324,0.151,0.489,0.193c0.398,0.098,0.798,0.173,1.244,0.267
	C24.274,0.703,24.19,0.444,24.043,0c0.818,0.314,1.031,0.878,1.202,1.574c0.147,0.575,0.362,1.321,0.757,1.576
	c0.637,0.412,1.445,0.474,2.18,0.704c0.91,0.288,1.646,0.09,2.189-0.859c0.114-0.199,0.421-0.434,0.593-0.391
	c0.918,0.237,1.862,0.454,2.722,0.87c0.969,0.469,1.882,1.107,2.786,1.736c0.367,0.255,0.767,0.616,0.93,1.037
	c0.387,1.012,0.497,2.177,1.43,2.84c0.103,0.072,0.184,0.326,0.156,0.464c-0.308,1.439,1.18,2.589,0.508,4.089
	c-0.049,0.11,0.026,0.36,0.118,0.476c0.697,0.885,0.532,1.918,0.346,2.911c-0.167,0.902,0.142,1.518,0.697,2.057
	c0.684,0.669,1.45,1.053,2.391,0.998c0.399-0.023,0.911,0.014,1.2,0.272c1.176,1.063,2.465,1.067,3.854,0.856
	c0.438-0.067,0.922,0.239,1.387,0.371c0.359,0.103,0.751,0.362,1.075,0.277c1.679-0.443,3.379-0.85,4.999-1.507
	c1.479-0.6,3.076-0.987,4.207-2.471c0.338-0.444,1.125-0.791,1.622-0.685c2.112,0.458,4.08-0.309,6.105-0.621
	c0.338-0.053,0.709,0.024,1.047,0.126c0.606,0.185,1.279,0.758,1.772,0.594c1.324-0.439,2.448-0.083,3.638,0.483
	c0.668,0.316,1.167,0.61,1.243,1.517c0.057,0.732,0.55,0.89,1.059,0.65c0.371-0.173,0.648-0.587,1.002-0.826
	c0.342-0.23,0.779-0.595,1.088-0.51c1.1,0.306,2.238-0.486,3.312,0.199c0.082,0.051,0.296-0.177,0.453-0.263
	c0.425-0.232,0.841-0.493,1.28-0.685c1.166-0.514,2.403-0.867,3.491-1.533c1.062-0.646,1.91-0.695,2.87,0.195
	c0.407,0.372,0.951,0.865,1.386,0.812c1.961-0.23,3.907-0.633,5.859-0.986c0.135-0.024,0.329-0.102,0.391-0.224
	c0.522-1.001,1.442-1.063,2.297-1.34c1.546-0.498,3.048-1.131,4.59-1.618c0.77-0.242,1.587-0.266,2.378-0.412
	c1.255-0.236,2.66,0.034,3.464-1.611c0.34-0.702,1-0.83,1.75-0.477c0.455,0.218,1.035,0.141,1.565,0.128
	c0.438-0.008,0.875-0.112,1.312-0.191c0.678-0.121,1.355-0.303,2.034-0.372c0.68-0.064,1.417-0.203,2.035,0.02
	c2.07,0.739,3.546-0.61,5.136-1.656c0.407-0.268,0.864-0.625,1.3-0.626c5.269-0.021,10.533,0.019,15.801,0.035
	c9.517,0.035,19.027,0.062,28.539,0.09c1.213,0.002,1.816,0.601,2.149,1.913c0.12,0.467,0.498,0.859,0.78,1.265
	c0.283,0.413,0.738,0.751,0.87,1.212c0.192,0.703,0.398,0.936,1.074,0.773c0.359-0.085,0.941,0.133,1.157,0.445
	c0.403,0.571,0.788,0.806,1.43,0.797c0.845-0.014,2.018,0.946,1.969,1.624c-0.104,1.532,0.928,2.228,1.63,3.179v1.024
	c-0.509,0.663-1.133,1.256-1.503,2.008c-0.522,1.064-0.729,2.352-1.319,3.351c-0.784,1.321-1.762,2.394-1.841,4.195
	c-0.05,1.145-0.702,2.267-1.15,3.367c-0.261,0.643-0.65,1.218-0.991,1.822c-0.056,0.109-0.196,0.209-0.196,0.315
	c0.007,0.963-0.675,1.357-1.148,1.961c-0.246,0.317-0.274,0.93-0.267,1.411c0.014,1.12,0.359,2.273-0.392,3.282
	c-0.283,0.387-0.549,0.804-0.811,1.213c-0.744,1.158-1.454,2.34-2.878,2.558c-0.287,0.042-0.626,0.466-0.755,0.807
	c-0.526,1.312-0.957,2.668-1.441,3.999c-0.249,0.673-0.404,1.483-0.831,1.953c-0.755,0.823-1.588,1.48-1.177,2.888
	c0.051,0.18-0.038,0.518-0.167,0.65c-0.637,0.645-0.309,1.037,0.169,1.562c0.256,0.281,0.486,1.108,0.369,1.23
	c-0.593,0.603-0.282,1.082,0.091,1.457c0.364,0.355,0.806,0.759,1.317,0.066c0.112-0.153,0.822-0.058,0.902,0.129
	c0.322,0.71,0.648,0.877,1.349,0.604c0.829-0.317,1.18,0.065,1.349,0.966c0.051,0.245,0.448,0.391,0.673,0.595
	c0.371,0.338,0.732,0.688,1.101,1.034c-0.54,0.622-0.318,1.822-1.328,2.129c-0.618,0.188-0.664,0.904-0.162,1.396
	c0.647,0.643,0.668,1.344,0.117,2.057c-0.146,0.191-0.303,0.566-0.23,0.751c0.386,1.038-0.16,2.015-0.56,2.603
	c-0.848,1.25-0.848,2.549-0.848,3.938c0,17.199,0,34.395-0.016,51.587C168.074,128.631,167.91,129.055,167.819,129.469
	 M8.855,87.553c-0.422-0.818-0.785-1.531-1.188-2.318C7.411,86.246,8.104,87.598,8.855,87.553"/>
</svg>
